<?xml version="1.0" encoding="utf-8"?>
<svg x="0" y="0"  xmlns="http://www.w3.org/2000/svg" xmlns:xlink="http://www.w3.org/1999/xlink" viewBox="0 0 512 512" class="black-shadow relative z-10 aspect-square w-[1.17rem]"><g id="black"><path d="M418,337.14a89.78,89.78,0,0,1-14.54,15.75c-2.74,2.42-5.29,5-7.87,7.55Q376,379.93,356.45,399.5C336,419.88,315.37,440,295.33,460.76c-9.57,9.91-19.9,19-29.37,29-6.43,6.81-14.72,6.69-21.32.12q-8.38-8.34-16.74-16.71l-60.18-60.11c-20.34-20.31-40.58-40.72-61.09-60.86-4.91-4.82-9.93-9.47-14-15,1-1.09,2.3-1.06,3.57-1.06q50.6,0,101.2,0a14.93,14.93,0,0,1,1.77.17,3.39,3.39,0,0,1,1.57.51c1.13.94,1.43,2.32,1.85,3.62q10.25,31.32,21.59,62.24c6.81,18.49,13.06,37.16,19.68,55.71,3.4,9.54,6.53,19.2,9.88,28.77a7.57,7.57,0,0,1,.69,2.62q0-73.46,0-147.37c0-2-.67-4.21,1.34-5.77a10.46,10.46,0,0,1,4.37-.51q76.54,0,153.1,0C414.84,336.17,416.59,335.84,418,337.14Z" transform="translate(-15.64 -15.7)" style="fill:#c1c1c1"/><path d="M200.81,337.14h-1.19a12.89,12.89,0,0,1-2.77-3.42c-10.67-16.3-21.56-32.46-32.47-48.59-12.63-18.67-25.24-37.35-37.58-56.19-6.25-9.55-12.33-19.21-18.86-28.55-5.59-8-11.2-15.93-16.56-24.06a3.69,3.69,0,0,1,1.68-3c1.64-1.28,3.57-.93,5.41-.93q57,0,114.09,0,18.91,0,37.83,0c1.65,0,3.37-.22,4.86.83a4.48,4.48,0,0,1,1,3.31c0,25.49.18,51-.09,76.46a11.14,11.14,0,0,1-.25,3c-8.82,12.19-16.44,25.19-25,37.54q-14.38,20.73-28.36,41.72a6.71,6.71,0,0,1-1.3,1.6Z" transform="translate(-15.64 -15.7)" style="fill:#d8d8d8"/><path d="M255.18,256.71l.18-2.82c5.85-9.09,12.12-17.9,17.93-27,10.89-17.06,23-33.31,33.88-50.36.85-1.33,1.53-3.13,3.72-2.79,1.19.65,1.73,1.86,2.43,2.91,9.37,14,18.59,28.08,28.08,42,13.33,19.51,26.35,39.21,39.39,58.9,6.3,9.51,12.25,19.28,18.85,28.59q8.88,12.51,17.38,25.29a7.56,7.56,0,0,1,1.72,3.38,3.44,3.44,0,0,1-.75,2.37H255.26l-.4-.43a8.13,8.13,0,0,1-.58-4q0-35.71,0-71.42C254.28,259.69,254.13,258.08,255.18,256.71Z" transform="translate(-15.64 -15.7)" style="fill:#a5a5a5"/><path d="M255.26,173.42H96.9c-1.28,0-2.56,0-3.84,0a2.43,2.43,0,0,1,.58-1.92c4.08-3.42,6.77-8.19,11.15-11.32a17,17,0,0,0,2.15-2l50.42-50.35L215.24,50q14.82-14.8,29.65-29.6a15.45,15.45,0,0,1,10.5-4.64,2.91,2.91,0,0,1,.82,3.09,49.82,49.82,0,0,0,0,5.6q0,71.54,0,143.07c0,1.85.29,3.74-.57,5.52Z" transform="translate(-15.64 -15.7)" style="fill:#eee"/><path d="M255.79,18c-.13-.76-.27-1.51-.4-2.26,4.89.35,8.58,2.75,11.94,6.25,7,7.3,14.67,14,21.66,21.31,16.75,17.51,34.17,34.34,51.23,51.53,20.17,20.33,40.37,40.63,60.86,60.63,4.85,4.73,9.41,9.73,14.26,14.44A8.68,8.68,0,0,1,418,173.4c-1.18,1.21-2.73,1-4.17,1q-49.86,0-99.72,0a19.26,19.26,0,0,1-3.22-.38c-3.07,1-3.78,4.1-5.32,6.35-6.84,10-13.17,20.27-20.26,30.05-9.55,13.2-17.71,27.31-27.15,40.57-.77,1.06-1.11,2.61-2.75,2.88q0-25.2-.1-50.4c0-10,0-20,0-30.07h0c1.25-1.1,2.78-.82,4.23-.83q22,0,44.07,0c.78,0,1.57,0,2.36,0,2.63-.12,2.91-.49,2.06-3.08-2-6.17-4.14-12.31-6.25-18.46-5.57-16.19-11-32.45-16.87-48.53q-8-21.75-15.64-43.6c-4.41-12.44-8.45-25-12.81-37.45A11.73,11.73,0,0,1,255.79,18Z" transform="translate(-15.64 -15.7)" style="fill:#c1c1c1"/><path d="M310.84,174c1.06-1.08,2.42-.6,3.65-.6q51.74,0,103.46,0a12,12,0,0,1,1.89,7q-.07,75-.07,150.05c0,1.48.63,3.22-1,4.35-4.38-5.43-7.7-11.61-11.86-17.19-7.33-9.86-14.19-20-20.78-30.39-13.09-20.57-26.93-40.64-40.4-61-11-16.62-22.2-33.13-33.3-49.69C311.85,175.73,311.36,174.88,310.84,174Z" transform="translate(-15.64 -15.7)" style="fill:#d8d8d8"/><path d="M91.38,176.33c1,.07,1.43.85,2,1.6,10.08,14.72,20.65,29.13,30.15,44.21S143.14,252,153,266.86c9.54,14.5,19.47,28.74,29.16,43.15,5.74,8.54,11.35,17.18,17,25.79a6.52,6.52,0,0,1,.51,1.34l-103.2,0c-1.28,0-2.56,0-3.84.08a14.2,14.2,0,0,1-1.89-7.59q.07-74.52,0-149C90.73,179.17,90.47,177.66,91.38,176.33Z" transform="translate(-15.64 -15.7)" style="fill:#eee"/><path d="M449.89,34.13a20.48,20.48,0,0,1-1.05,8.18c-2.55,6.55-7.69,9.87-14.69,9.3-5.76-.47-10.87-5.42-11.95-11.75a37.13,37.13,0,0,1-.1-12c1.15-7.25,7.43-12.52,14.44-12.1a14.39,14.39,0,0,1,13.34,13.74C449.93,30.84,449.89,32.22,449.89,34.13Z" transform="translate(-15.64 -15.7)" style="fill:#a6a6a6"/><path d="M449.82,116.4c.38,4.73-.11,9.1-3.23,12.68-4,4.6-9.11,6.19-14.91,4.35a13,13,0,0,1-9.57-11.55c-.66-5.6-.93-11.17,1.8-16.42a12.36,12.36,0,0,1,11.37-7.1c5.4-.12,9.69,1.85,12.43,6.82A19,19,0,0,1,449.82,116.4Z" transform="translate(-15.64 -15.7)" style="fill:#a6a6a6"/><path d="M394,88.87c-3.81.19-7.88,0-11.51-2.55a13.92,13.92,0,0,1-5.27-15.39,13.57,13.57,0,0,1,12.67-9.78c3.64-.06,7.35-.33,10.92.23A13.67,13.67,0,0,1,412.6,76c-.51,7.08-6.22,12.44-13.77,12.88C397.36,89,395.87,88.87,394,88.87Z" transform="translate(-15.64 -15.7)" style="fill:#a6a6a6"/><path d="M477.94,61.14c5.56-.59,11.1.56,14.85,6.24,5.81,8.8-.13,20.85-10.64,21.46a57.45,57.45,0,0,1-9.46,0C462.51,87.72,455.58,78,461,68.34a13.86,13.86,0,0,1,11.52-7.19C474.09,61.05,475.67,61.14,477.94,61.14Z" transform="translate(-15.64 -15.7)" style="fill:#a6a6a6"/><path d="M88.86,396.65c-.21,2.94-.48,8-4.82,12s-9.37,4.56-14.49,2.62-7.71-5.95-8.49-11.43a54.25,54.25,0,0,1,.07-11.95c.41-5.33,6.28-10.73,11.63-11.17C83.06,375.86,89.38,382.39,88.86,396.65Z" transform="translate(-15.64 -15.7)" style="fill:#eee"/><path d="M89.06,474.52c-.24,8.75-1,14.44-6.87,18.06C73.54,498,61.73,492.55,61,482a49.82,49.82,0,0,1,.19-10.79,14.27,14.27,0,0,1,7.58-10.94,12.36,12.36,0,0,1,13.48.79A16.43,16.43,0,0,1,89.06,474.52Z" transform="translate(-15.64 -15.7)" style="fill:#eee"/><path d="M33,449.37c-4.12.3-7.85.09-11.25-2.24a13.86,13.86,0,0,1-5.64-15.44c1.36-5.31,6.49-9.81,12.16-9.94,5.43-.12,10.91-.82,16.15,2.07a13.09,13.09,0,0,1,7,11.45A12.58,12.58,0,0,1,45,447.05,18.39,18.39,0,0,1,33,449.37Z" transform="translate(-15.64 -15.7)" style="fill:#eee"/><path d="M115.82,449.45c-4.94.3-9.93-.53-14.12-4.62-5.46-5.34-4.54-18.15,4-21.26,7.81-2.83,15.48-3.46,22.81,1.09,4.33,2.68,6.46,9.39,5,14.36-1.74,5.82-6.82,10.2-12.18,10.42C119.69,449.5,118,449.45,115.82,449.45Z" transform="translate(-15.64 -15.7)" style="fill:#eee"/><path d="M255.26,337.14V492.53c-1,0-1-.87-1.19-1.44q-9.75-28.24-19.48-56.51c-3.14-9.09-6-18.27-9.54-27.2-7.42-18.89-13.31-38.31-20.36-57.32a76.27,76.27,0,0,1-3.88-12.92h0c1.13-1,2.53-1,3.91-1q23.32,0,46.64,0c1.37,0,2.78,0,3.91,1Z" transform="translate(-15.64 -15.7)" style="fill:#d8d8d8"/><path d="M255.26,337.14H200.8c3.64-6.74,8.25-12.85,12.48-19.2,7.07-10.6,14.45-21,21.55-31.58,6-8.87,11.69-17.9,17.59-26.81.72-1.08,1.08-2.65,2.76-2.85Q255.23,296.92,255.26,337.14Z" transform="translate(-15.64 -15.7)" style="fill:#c1c1c1"/><path d="M255.79,18c2.61,5.49,4.19,11.36,6.2,17.07,6.88,19.65,13.16,39.52,20.5,59,7.2,19.07,13.24,38.53,20.39,57.61,2.27,6,4.15,12.24,6.19,18.37,1.08,3.25,1,3.4-2.63,3.4H255.26q0-75.87,0-151.76C255.28,20.43,254.83,19.09,255.79,18Z" transform="translate(-15.64 -15.7)" style="fill:#d8d8d8"/></g></svg>